<svg xmlns="http://www.w3.org/2000/svg" xmlns:xlink="http://www.w3.org/1999/xlink" viewBox="0 0 25.742 15.241">
  <defs>
    <path id="a" d="M0 .107h1.629V.55H0z"/>
  </defs>
  <g fill="none" fill-rule="evenodd">
    <path fill="#000" d="M.031 6.811v1.584h18.233c1.887 0 3.17-.447 4.95-.447v.103c-3.561 1.79-5.057 3.788-6.267 5.647l1.388 1.274c1.781-3.03 3.81-5.268 7.407-6.956v-.86c-3.596-1.688-5.626-3.891-7.407-6.921l-1.388 1.24c1.21 1.893 2.706 3.89 6.267 5.68v.104c-1.78 0-3.063-.448-4.95-.448H.031Z"/>
    <path fill="#202020" d="M18.172 8.338c.802.013 1.014.018.845.075-.169.055-.732.107-1.457.106-.324.002-.497.017-.535.032-.286 0-.57.002-.828.003-.404-.001-.637-.038-1.04-.056-.207-.01-.486-.01-.743-.007a46.826 46.826 0 0 0-1.614-.013c-1.021.01-2.389.051-3.365.013-1.103-.044-1.25-.023-2.433-.027-.625-.003-1.578.007-2.041-.027-.442-.033-1.015-.174.817-.144a4.83 4.83 0 0 0 .664-.022c1.153-.02 2.169.01 3.333.016a2257.857 2257.857 0 0 0 1.496-.007l.999-.02c.234.01.473.018.685.025.337.01.745-.007 1.082-.007.29-.001.724.013 1.037.002l2.788.043c.065.007.16.012.31.015"/>
    <path fill="#202020" d="M5.235 6.756c.228-.025.417-.048.874-.054.403-.006.762.006 1.165.009.404.006.827-.011 1.23.023.403.026.676-.013 1.08-.032.404-.02.883.001 1.287.021l.692.023c.202.008.393.013.595.01.403-.002.81-.03 1.213-.045.404-.015.67.003 1.073.014l.661.014c.202.005.465-.02.667-.02.404-.002.893.011 1.297.001l1.15-.026a8.63 8.63 0 0 1 1.163.074l1.272.174c.397.063.781.13 1.179.177.4.047.783.074 1.187.075l.069.002-.058.057c.018-.08-.024-.09-.12-.146l-.244-.138c-.18-.091-.391-.215-.567-.314a14.68 14.68 0 0 1-1.083-.646 8.036 8.036 0 0 1-.954-.696c-.308-.266-.446-.456-.73-.743-.29-.284-.66-.703-.925-1.008-.26-.31-.54-.644-.778-.972l-.326-.427-.319-.443-.2-.31-.033-.054c.004-.015.028-.028.04-.043l.093-.084c.04-.035.08-.07.122-.109l.43-.364.5-.422.131-.118.215-.2c.022-.035.034-.004.047.02l.04.066.077.13.093.159c.193.352.372.653.59.99.11.168.196.3.314.461.117.164.196.3.328.452l.232.25c.22.274.449.549.692.811.096.111.183.231.285.338l.41.433c.138.144.318.314.469.445.15.133.282.26.437.388.316.262.67.554 1.012.784.325.22.715.457 1.057.647.356.185.605.3.965.474.106.054.21.105.316.16l.064.033c.017.013.005.045.008.066v.135l-.003.153-.008.69-.638.336-.56.31c-.337.19-.628.332-.954.546-.338.21-.688.474-1 .721-.321.25-.691.54-.975.832-.284.283-.528.565-.787.87-.272.33-.44.531-.697.844-.25.313-.496.63-.737.952-.117.163-.235.306-.348.473-.055.084-.133.239-.185.325-.051.086-.194.323-.234.416-.007.014-.006.02-.006.02l-.273.495c-.08-.05-.173-.152-.253-.22l-.159-.144-.035-.034a10.168 10.168 0 0 0-.481-.442l-.365-.345-.25-.24.189-.293c.187-.284.39-.568.608-.857.123-.158.324-.438.411-.566.11-.173.249-.354.396-.547.19-.22.385-.445.578-.646.082-.091.167-.174.251-.257.47-.451.962-.825 1.294-1.027.094-.055.238-.167.41-.283.465-.335.891-.64 1.293-.906.113-.069.226-.137.342-.2l.184-.103c.03-.01.065-.038.032-.058l-.102.01-.05.005-.151.01-.301.023c-.394.03-.743.054-1.14.106l-.068.01c-.91.077-.14-.16 1.097-.347l.158-.014c.221-.016.333-.034.685-.033l.296.06c.046.008.017.12.02.146-.008.022-.054.067-.08.1-.422.271-.65.364-.918.538a7.236 7.236 0 0 0-1.048.61c-.136.096-.302.208-.384.287a28.618 28.618 0 0 0-1.616 1.495l-.033.035c-.198.205-.42.434-.715.742-.152.156-.373.45-.496.637l-.63.993-.2.292c.016.016-.003-.001.043.044l.118.112.246.23.485.44.24.216c.054.045.027.03.041.027.008-.01.007.035.021.025-.01.024.076-.123.149-.246.073-.127.15-.252.181-.292.062-.081.041-.02.096-.105l.168-.27.406-.63c.217-.342.294-.536.537-.863.243-.327.515-.616.793-.913.273-.3.669-.71.972-.981.313-.269.571-.468.892-.725.315-.254.65-.512.983-.743.32-.23.583-.41.92-.618.32-.194.688-.374 1.031-.54.043-.023.032.017.041-.05l.02-.226c.008-.097.014-.26.016-.424 0-.05.004-.04-.086-.083l-.205-.094a11.44 11.44 0 0 1-.894-.43c-.086-.047-.165-.1-.24-.147-.336-.211-.623-.414-.949-.641-.335-.248-.615-.493-.936-.757l-.466-.386-.455-.41a9.054 9.054 0 0 1-.433-.407c-.144-.144-.34-.362-.474-.516-.129-.158-.254-.336-.378-.497-.12-.164-.151-.257-.263-.426l-.36-.521c-.118-.165-.214-.346-.328-.513-.221-.338-.425-.618-.635-.964L18.277.29c-.008-.023-.02-.015-.034.005L18.2.342l-.431.439a8.87 8.87 0 0 1-.444.415l-.216.19c-.015.024-.038-.01.018.083l.278.482c.104.172.37.507.484.67.226.33.426.607.679.917.258.305.55.67.85.939.294.27.527.43.842.677.311.25.737.547 1.059.783.327.23.486.4.828.61.17.108.373.238.55.332l.252.138.146.078.042.023c.004.013.001.03.002.044v.142h-.05l-.054-.002a12.659 12.659 0 0 1-1.243-.064c-.402-.041-.824-.113-1.222-.167-.399-.056-.694-.06-1.093-.089-.4-.028-.862-.06-1.261-.062L16.9 6.918c-.405-.011-.709-.035-1.114-.037h-.63l-.544.026c-.404.013-.686-.007-1.09-.022-.402-.015-.996-.009-1.4-.01-.201-.003-.292-.01-.493-.003l-.67.023c-.403.02-.975.036-1.379.015-.403-.02-.873-.068-1.276-.042-.403.033-.636.023-1.04.029-.403.003-.777.025-1.18.02a24.08 24.08 0 0 1-.968-.026c-.212-.014-.178-.042-.248-.062-.098-.029.147-.05.367-.073"/>
    <g transform="matrix(0 -1 -1 0 .55 8.428)">
      <mask id="b" fill="#fff">
        <use xlink:href="#a"/>
      </mask>
      <path fill="#202020" d="M.362.44.178.45.071.464C.053.361.028.238.011.395L0 .537C.316.554.81.554 1.127.54c.37-.016.671-.058.395-.083A11.99 11.99 0 0 0 .362.441" mask="url(#b)"/>
    </g>
    <path fill="#202020" d="M.095 6.876c-.14-.043-.1-.078.657-.093.652-.011 1.192-.007 1.533.033.313.036.137.07-.468.087-.684.02-1.524.034-1.722-.027M1.176 8.349c-.141.042-.1.078.656.093.652.011 1.193.007 1.534-.033.313-.036.136-.07-.468-.087-.684-.02-1.524-.034-1.722.027"/>
  </g>
</svg>