<svg version="1.1" id="Layer_1" xmlns="http://www.w3.org/2000/svg" xmlns:xlink="http://www.w3.org/1999/xlink" x="0px" y="0px" viewBox="0 0 250 250" style="enable-background:new 0 0 250 250;" xml:space="preserve">
<style type="text/css">
	.st0{fill:#fff;}
	.st1{fill:#f3d178;}
	.st2{fill:none;stroke:#727473;stroke-width:6;stroke-linecap:round;stroke-linejoin:round;stroke-miterlimit:10;}
	.st3{fill:#f3d178;stroke:#f3d178;stroke-width:0.75;stroke-miterlimit:10;}
	.st4{fill:none;stroke:#f3d178;stroke-width:6;stroke-linecap:round;stroke-linejoin:round;stroke-miterlimit:10;}
	.st5{fill:#FFFFFF;}
	.st6{fill:none;}
</style>
<g id="Quvfu3.tif">
	<g>
		<path class="st0" d="M160.52,48.32c0.03-3.25-1.1-5.94-3.31-8.29c-8.4-8.94-16.79-17.9-25.12-26.9c-2.31-2.5-4.71-4.79-8.01-5.91
			H15.96c-4.36,1.47-7.26,4.39-8.75,8.74v189.56c2.38,6.64,7.18,9.07,14.09,8.8c8.19-0.32,16.41-0.08,24.61-0.08
			c0.53,0,1.07,0.02,1.61-0.01c2.4-0.1,3.9-1.46,3.94-3.59c0.05-2.23-1.48-3.72-4-3.73c-9.28-0.04-18.56-0.01-27.84-0.02
			c-3.87-0.01-5.05-1.19-5.05-5.1V19.61c0-3.9,1.16-5.03,5.08-5.03c32.28-0.01,64.57-0.01,96.85-0.01H119
			c0,7.74-0.06,15.1,0.02,22.46c0.09,7.62,6.05,13.72,13.67,13.95c4.75,0.14,9.51,0.04,14.27,0.06h6.17c0,4.84-0.02,9.42,0.01,14
			c0.01,2.85,1.43,4.61,3.68,4.64c2.27,0.04,3.68-1.67,3.69-4.56C160.52,59.52,160.46,53.92,160.52,48.32z M145.95,43.67
			c-4.13,0.02-8.27,0.06-12.4-0.01c-4.4-0.06-7.15-2.81-7.19-7.2c-0.05-5.16-0.01-10.33-0.01-16.12
			c7.31,7.92,14.18,15.37,21.26,23.05C146.9,43.51,146.43,43.67,145.95,43.67z"></path>
		<path class="st0" d="M242.79,75.31c0.01,2.31-1.02,3.75-3.36,4.22c-3.6,0.73-7.19,1.56-10.79,2.25c-1.32,0.26-1.99,0.82-2.53,2.16
			c-1.44,3.61-3.07,7.17-4.86,10.62c-1.17,2.25-3.38,2.77-5.22,1.65c-1.87-1.14-2.1-3.09-1.05-5.43c1.79-3.96,3.52-7.96,5-12.03
			c0.72-1.99,1.81-3.05,3.82-3.44c3.82-0.74,7.63-1.57,11.52-2.39v-6.93c-3.85-0.84-7.71-1.76-11.6-2.48
			c-2.2-0.41-3.14-1.7-3.87-3.69c-1.4-3.87-2.94-7.7-4.72-11.4c-0.93-1.94-1.11-3.53,0.12-5.34c2.19-3.23,4.29-6.53,6.48-9.88
			c-1.65-1.63-3.26-3.23-4.97-4.9c-3.28,2.14-6.57,4.22-9.79,6.41c-1.8,1.22-3.37,1.13-5.34,0.19c-3.77-1.81-7.67-3.39-11.61-4.82
			c-1.92-0.7-3.12-1.64-3.52-3.72c-0.74-3.9-1.65-7.76-2.5-11.68h-6.91c-0.81,3.86-1.61,7.66-2.42,11.47
			c-0.6,2.84-2.21,4.13-4.56,3.67c-2.16-0.42-3.23-2.34-2.69-5.01c0.92-4.5,1.76-9.02,2.92-13.47c0.39-1.49,1.64-2.75,2.5-4.11
			h15.64c0.82,1.56,1.93,3.03,2.4,4.69c0.9,3.16,1.53,6.4,2.09,9.64c0.23,1.36,0.89,1.87,2.1,2.3c2.52,0.9,5.02,1.9,7.4,3.09
			c1.3,0.64,2.19,0.54,3.33-0.25c2.96-2.04,6-3.98,9.03-5.93c2.23-1.43,3.67-1.32,5.56,0.53c2.85,2.78,5.63,5.64,8.45,8.46
			c1.6,1.6,1.68,3.35,0.49,5.2c-2,3.09-3.96,6.2-6.05,9.23c-0.79,1.16-0.85,2.05-0.23,3.33c1.2,2.47,2.05,5.1,3.22,7.59
			c0.35,0.74,1.19,1.57,1.96,1.76c3.56,0.9,7.17,1.58,10.76,2.35c2.82,0.6,3.76,1.73,3.77,4.59
			C242.8,67.64,242.77,71.47,242.79,75.31z"></path>
		<path class="st1" d="M226.01,107.9c-9.66-0.02-19.32-0.01-28.98-0.01h-2.59V91.71c-0.01-9.4-5.1-14.56-14.43-14.56
			c-19.48-0.01-38.95-0.01-58.43,0c-9,0-14.14,5.11-14.16,14.06c-0.01,5.43,0,10.87,0,16.68h-2.82c-9.36,0-18.72,0.31-28.06-0.09
			c-9.51-0.4-17.89,6.82-17.59,17.48c0.28,9.96,0.06,19.93,0.06,29.89c0,23.46-0.02,46.92,0.01,70.39
			c0.01,10.54,6.75,17.21,17.29,17.21c49.84,0.01,99.68,0.01,149.51,0c10.05-0.01,16.94-6.87,16.95-16.88
			c0.02-33.73,0.02-67.47,0-101.21C242.77,114.75,235.93,107.93,226.01,107.9z M114.96,88.77c0.06-2.17,2.28-3.89,4.58-4.2
			c0.68-0.09,1.38-0.06,2.07-0.06c19.53-0.01,39.07-0.01,58.6,0c4.89,0,6.87,1.95,6.88,6.77c0.01,5.36,0.01,10.71,0.01,16.36h-8.22
			V92.36h-55.86v15.21h-8.11C114.89,101.28,114.78,95.02,114.96,88.77z M171.36,99.71v8.06h-40.93v-8.06H171.36z M66.47,123.38
			c0.11-4.86,3.9-8.12,9.06-8.13c11.35-0.04,22.69,0.06,34.03,0.06c13.49-0.01,26.98-0.07,40.48-0.08
			c25.15-0.01,50.28-0.01,75.43,0.01c5.32,0,9.38,2.42,9.62,6.91c0.47,8.78,0.33,17.61,0.04,26.41c-0.1,3.04-2.66,5.08-5.49,5.91
			c-4.31,1.27-8.74,2.21-13.16,3.08c-15.1,2.95-30.22,5.8-45.34,8.69c-0.28,0.06-0.58,0.04-1.09,0.07c0-3.82,0.01-7.57,0-11.31
			c-0.02-5.18-2.78-7.95-7.94-7.97c-7.52-0.02-15.03-0.02-22.54,0c-5.05,0.02-7.74,2.77-7.78,7.86c-0.02,3.53-0.02,7.05-0.04,10.58
			c0,0.14-0.09,0.28-0.25,0.74c-3.29-0.6-6.64-1.18-9.99-1.81c-15.04-2.85-30.09-5.68-45.12-8.62c-1.99-0.39-4-1.12-5.78-2.07
			c-2.56-1.37-4.17-3.54-4.16-6.66C66.47,139.16,66.29,131.27,66.47,123.38z M162.59,181.65c-0.18,6.44-5.67,11.16-12.1,11.01
			c-6.21-0.14-11.21-5.18-11.28-11.6c-0.09-8.8-0.02-17.59-0.02-26.53h23.47C162.66,163.74,162.85,172.71,162.59,181.65z
			 M235.42,225.87c-0.01,6-3.58,9.55-9.61,9.55c-50,0.01-99.99,0.01-149.98-0.01c-5.8,0-9.43-3.47-9.44-9.24
			c-0.05-21.54-0.02-43.09-0.02-64.64c0-0.37,0.04-0.75,0.05-0.79c5.19,1.2,10.31,2.53,15.49,3.55c15.7,3.07,31.44,6.01,47.16,9
			c0.82,0.16,1.64,0.35,2.75,0.58c0,2.61-0.07,5.19,0.02,7.78c0.31,9.24,7.21,16.87,16.42,18.24c8.91,1.32,17.89-4.17,20.7-12.87
			c0.69-2.15,0.86-4.49,1.05-6.77c0.17-2.04,0.04-4.11,0.04-6.33c7.57-1.45,15-2.87,22.42-4.3c11.8-2.27,23.61-4.5,35.4-6.88
			c2.51-0.51,4.9-1.59,7.56-2.48v40.76C235.42,209.3,235.43,217.59,235.42,225.87z"></path>
		<path class="st0" d="M211.23,69.68c-0.94,3.76-1.72,7.55-2.87,11.24c-0.86,2.77-2.93,3.76-5.06,2.93
			c-2.11-0.82-2.74-2.89-1.7-5.59c5.04-13.1-1.67-27.03-14.85-30.72c-1.83-0.5-3.76-0.64-5.65-0.84c-2.75-0.28-4.23-1.63-4.15-3.92
			c0.09-2.27,1.67-3.48,4.49-3.45c16.1,0.15,29.29,13.78,29.23,30.2C210.85,69.59,211.04,69.63,211.23,69.68z"></path>
		<path class="st0" d="M104.65,60.51c-0.02,2.23-1.78,3.67-4.63,3.67c-16.54,0.01-33.08,0.02-49.62-0.01
			c-3.44-0.01-5.61-2.84-3.92-5.32c0.71-1.04,2.46-1.89,3.76-1.92c8.34-0.17,16.69-0.09,25.04-0.09c8.27,0,16.54-0.01,24.81,0
			C102.98,56.86,104.67,58.23,104.65,60.51z"></path>
		<path class="st0" d="M104.65,43.86c-0.06,2.11-1.65,3.55-4.24,3.56c-8.42,0.04-16.84,0.02-25.26,0.02
			c-7.89,0.01-15.78,0.01-23.66,0c-0.91-0.01-1.86,0.01-2.74-0.18c-1.81-0.39-2.76-1.7-2.77-3.47c-0.01-1.76,0.92-3.08,2.73-3.5
			c0.81-0.18,1.67-0.2,2.51-0.2c16.08-0.01,32.16-0.01,48.24-0.01c0.31,0,0.61-0.01,0.92,0.01
			C103.04,40.2,104.72,41.68,104.65,43.86z"></path>
		<path class="st0" d="M80.4,77.19c-0.02,2.27-1.6,3.61-4.36,3.63c-4.29,0.02-8.59,0.01-12.88,0.01c-4.3,0-8.59,0.02-12.88-0.01
			c-2.67-0.02-4.36-1.49-4.34-3.69c0.02-2.19,1.73-3.64,4.41-3.65c8.59-0.02,17.17-0.02,25.76,0C78.83,73.49,80.42,74.92,80.4,77.19
			z"></path>
		<path class="st0" d="M34.38,79.94c-1.02,0.66-2.38,0.81-3.59,1.19c-1.31-0.37-2.59-0.48-3.58-1.08c-1.84-1.11-2.05-3.58-0.66-5.23
			c1.58-1.87,6.53-1.96,8.24-0.14C36.22,76.22,36.14,78.81,34.38,79.94z"></path>
		<path class="st0" d="M34.49,63.22c-1.58,1.44-6,1.38-7.57-0.03c-1.41-1.26-1.86-3.45-0.52-4.71c1.11-1.04,2.78-1.46,4.57-2.34
			c1.6,0.93,3.27,1.45,4.23,2.58C36.41,60.16,35.91,61.93,34.49,63.22z"></path>
		<path class="st0" d="M35.45,45.2c-0.92,2.15-2.84,2.32-4.79,2.23c-1.97,0.07-3.76-0.18-4.65-2.23c-0.76-1.71-0.27-3.16,1.1-4.3
			c1.44-1.2,5.77-1.2,7.22-0.01C35.74,42.04,36.18,43.52,35.45,45.2z"></path>
		<path class="st1" d="M154.5,180.36c0.04,2.05-1.5,3.66-3.53,3.71c-2.01,0.04-3.71-1.56-3.76-3.54c-0.06-1.97,1.57-3.65,3.59-3.69
			C152.85,176.79,154.46,178.32,154.5,180.36z"></path>
	</g>
</g>
</svg>