<?xml version="1.0" encoding="utf-8"?>
<svg xmlns="http://www.w3.org/2000/svg" width="142" height="41" viewBox="0 0 142 41" fill="none">
<g clip-path="url(#clip0_144_90034)">
<path d="M23.1971 30.6697C24.1363 30.1465 24.4476 29.4899 24.7087 28.7646C28.0326 19.524 31.3779 10.2906 34.691 1.0464C34.954 0.310325 35.2563 -0.0180216 36.1185 0.00182349C39.3064 0.0721834 42.4961 0.046926 45.684 0.0144522C46.3995 0.00723579 46.5427 0.138935 46.2833 0.855163C42.8664 10.2545 39.4764 19.6647 36.0792 29.0731C35.657 30.244 35.0631 30.7184 33.911 30.7221C30.5729 30.7329 27.2347 30.7239 23.8966 30.7221C23.757 30.7221 23.6157 30.7022 23.1953 30.6715L23.1971 30.6697Z" fill="#2E92D0"/>
<path d="M5.16822 23.4622C6.54033 19.6591 7.91423 15.8579 9.28098 12.0531C9.79798 10.617 10.3257 10.2363 11.8713 10.2363C15.2059 10.2363 18.5405 10.2363 21.8751 10.2363C21.1845 10.9038 20.9037 11.676 20.6174 12.4734C17.2954 21.7194 13.9501 30.9564 10.6352 40.2043C10.4152 40.8194 10.111 41.0071 9.47955 41.0017C6.32029 40.971 3.15925 40.989 0 40.989" fill="#2E92D0"/>
<path d="M62.3485 26.0727C62.3485 25.4538 62.3485 24.835 62.3485 24.218C62.3485 20.1931 62.3592 16.1681 62.3378 12.1432C62.3342 11.5875 62.429 11.3187 63.0515 11.3873C63.8118 11.4721 64.8208 11.0697 65.2841 11.5352C65.7475 12.0007 65.4147 13.0146 65.4165 13.7849C65.4272 19.1611 65.4093 24.5374 65.4398 29.9154C65.4433 30.5901 65.2841 30.7922 64.6133 30.7453C63.6938 30.6803 62.7653 30.6911 61.844 30.7417C61.2823 30.7723 61.005 30.5468 60.7384 30.076C58.2465 25.6487 55.7312 21.2359 53.2232 16.8194C53.0496 16.5127 52.8636 16.2132 52.6382 15.8344C52.4396 16.197 52.5183 16.5235 52.5183 16.8248C52.5112 21.1799 52.5004 25.535 52.529 29.8901C52.5326 30.5414 52.411 30.8337 51.7115 30.7363C50.9852 30.6334 50.0084 31.061 49.5845 30.5595C49.2285 30.1373 49.4718 29.1865 49.4718 28.4703C49.4682 23.0634 49.4861 17.6565 49.4521 12.2496C49.4485 11.528 49.6489 11.335 50.334 11.3819C51.2231 11.4414 52.123 11.4396 53.0138 11.3819C53.5809 11.344 53.8403 11.5767 54.1051 12.044C56.7026 16.6174 59.3252 21.1763 61.9424 25.7371C62.0157 25.8634 62.0945 25.9861 62.1714 26.1105C62.2304 26.0979 62.2895 26.0853 62.3485 26.0727Z" fill="black"/>
<path d="M141.977 25.9139C141.977 28.8889 141.941 31.8638 142.002 34.837C142.018 35.6398 141.767 36.0259 141.046 36.2622C140.429 36.4661 139.828 36.7421 139.252 37.0488C138.726 37.3266 138.658 37.1156 138.662 36.6411C138.674 34.9885 138.644 33.336 138.68 31.6834C138.692 31.1187 138.547 30.9762 137.98 31.0357C136.739 31.1674 135.494 31.1765 134.252 30.9203C130.81 30.2095 128.751 27.8335 128.572 24.2902C128.517 23.1789 128.533 22.0676 128.824 20.9815C129.633 17.9704 131.821 16.1934 135.125 15.93C137.268 15.7604 139.409 15.9264 141.551 16.0383C142.1 16.0671 141.961 16.4135 141.978 16.7166C141.98 16.7473 141.978 16.7761 141.978 16.8068C141.978 19.8413 141.978 22.8758 141.978 25.9103L141.977 25.9139ZM138.724 23.482C138.724 22.3418 138.724 21.2016 138.724 20.0614C138.724 18.9958 138.182 18.4527 137.096 18.4323C133.685 18.3692 132.082 19.7619 131.914 23.1464C131.756 26.3397 133.098 28.6994 136.952 28.501C137.338 28.4811 137.721 28.4162 138.107 28.4162C138.601 28.4162 138.748 28.2087 138.735 27.7108C138.701 26.3018 138.723 24.891 138.723 23.4802L138.724 23.482Z" fill="black"/>
<path d="M110.493 20.482C110.493 23.6373 110.481 26.7927 110.506 29.9463C110.509 30.4857 110.395 30.7275 109.819 30.787C107.779 30.9999 105.756 31.3463 103.686 31.1081C99.1407 30.5849 96.5217 27.26 97.1567 22.3402C97.7113 18.0356 100.314 15.8761 104.638 15.8761C104.996 15.8761 105.354 15.8671 105.711 15.8761C106.735 15.9026 107.246 15.386 107.246 14.3264C107.246 13.2439 107.3 12.1596 107.228 11.0826C107.178 10.3303 107.461 10.1535 108.134 10.2148C108.695 10.2671 109.27 10.2671 109.83 10.2148C110.407 10.1607 110.513 10.3916 110.508 10.9274C110.482 14.1117 110.495 17.2977 110.495 20.482H110.493ZM107.243 23.6049C107.243 22.7335 107.243 21.8639 107.243 20.9925C107.243 18.3838 107.044 18.1998 104.395 18.4686C102.659 18.6454 101.329 19.4067 100.794 21.191C99.7221 24.7703 100.919 29.2192 106.307 28.5625C106.425 28.5481 106.545 28.5463 106.665 28.5553C107.123 28.5914 107.264 28.3966 107.255 27.9293C107.225 26.4878 107.245 25.0463 107.245 23.6049H107.243Z" fill="black"/>
<path d="M125.967 25.0679C125.967 26.7493 125.956 28.4307 125.974 30.1122C125.978 30.5055 125.915 30.6913 125.462 30.731C122.734 30.9727 120.01 31.1982 117.271 30.8897C113.84 30.5037 112.031 27.3844 113.401 24.1803C113.952 22.8922 115.026 22.2246 116.308 21.8692C118.172 21.3515 120.085 21.438 121.986 21.5174C122.563 21.5409 122.672 21.3911 122.666 20.8445C122.652 19.0945 122.144 18.5515 120.416 18.4144C118.439 18.2574 116.5 18.501 114.573 18.8852C114.085 18.9827 114.042 18.8546 114.026 18.427C113.949 16.3433 113.931 16.2982 116.019 16.0095C118.233 15.7028 120.466 15.6018 122.672 16.0889C124.7 16.5363 125.815 17.8551 125.888 19.9388C125.947 21.6455 125.901 23.3576 125.901 25.0661C125.922 25.0661 125.944 25.0661 125.965 25.0661L125.967 25.0679ZM122.863 26.2063C122.863 25.6073 122.847 25.0066 122.868 24.4076C122.881 24.0414 122.79 23.8628 122.384 23.861C120.96 23.8537 119.532 23.704 118.121 24.0215C116.806 24.3174 116.194 25.0138 116.19 26.2153C116.187 27.4764 116.806 28.2088 118.112 28.5354C119.02 28.7609 119.942 28.714 120.861 28.7104C122.196 28.7068 122.863 28.0519 122.863 26.7457C122.863 26.5653 122.863 26.3867 122.863 26.2063Z" fill="black"/>
<path d="M80.9543 25.1851C80.9543 26.8069 80.9596 28.427 80.9471 30.0489C80.9453 30.3033 81.1189 30.6677 80.609 30.7092C77.5285 30.9582 74.4444 31.3587 71.371 30.7002C69.3083 30.2582 68.1974 28.8817 68.0883 26.7925C67.9523 24.1711 68.7949 22.7495 70.9309 22.0062C72.8612 21.3351 74.863 21.4199 76.8487 21.5209C77.6376 21.5606 77.7163 21.2611 77.6734 20.6279C77.566 19.0295 77.0938 18.555 75.4784 18.4179C73.473 18.2465 71.5016 18.4973 69.5445 18.8942C69.1044 18.9826 69.0006 18.9194 68.9845 18.4521C68.9094 16.3522 68.8879 16.3287 70.9703 16.022C73.0955 15.7099 75.2369 15.6089 77.3567 16.0238C79.8129 16.5037 80.9149 17.8857 80.9525 20.4096C80.9757 22.0008 80.9561 23.592 80.9561 25.1832L80.9543 25.1851ZM77.8487 26.2495H77.8523C77.8523 25.6487 77.8505 25.0479 77.8523 24.449C77.8523 24.1242 77.8254 23.8645 77.3889 23.8608C75.9632 23.8518 74.5338 23.7039 73.1205 24.0232C71.8218 24.3173 71.1778 25.0443 71.1706 26.2188C71.1635 27.4257 71.8504 28.225 73.1188 28.5353C74.2064 28.8023 75.3102 28.7139 76.4086 28.6994C77.8487 28.6796 77.8487 28.6543 77.8487 27.2381C77.8487 26.908 77.8487 26.5778 77.8487 26.2477V26.2495Z" fill="black"/>
<path d="M21.8617 30.289C21.1247 30.2205 20.4503 29.9264 20.1533 29.1326C19.3984 27.1156 18.6846 25.0824 17.9315 23.0636C17.808 22.7335 17.9279 22.4755 18.0263 22.2013C19.2106 18.9088 20.3984 15.6163 21.5916 12.3256C22.0067 11.1836 22.6274 10.6712 23.563 10.6694C24.5112 10.6676 25.1265 11.1764 25.538 12.3112C26.1713 14.0539 26.7903 15.8021 27.4378 17.5395C27.6042 17.9869 27.5953 18.3838 27.4325 18.8312C26.2321 22.1183 25.0514 25.4126 23.8582 28.7014C23.4807 29.7406 22.817 30.2728 21.8617 30.289Z" fill="#2E92D0"/>
<path d="M91.1046 15.824C91.7129 15.8908 92.7469 16.0171 93.7827 16.1109C94.2442 16.1524 94.4857 16.2985 94.4356 16.8271C94.3748 17.4784 94.6217 18.3317 94.2943 18.7376C93.9955 19.1093 93.1512 18.6438 92.5429 18.5771C91.1493 18.4201 89.7593 18.2577 88.3729 18.5879C87.6574 18.7575 86.9507 19.0173 86.8971 19.9085C86.8416 20.8286 87.5482 21.1263 88.2477 21.3265C89.389 21.6531 90.5519 21.911 91.6986 22.2232C92.1547 22.3476 92.6038 22.5154 93.0367 22.7085C94.4678 23.3435 95.2907 24.4206 95.3569 26.0334C95.4213 27.6156 94.9007 28.9254 93.5698 29.8238C91.847 30.9875 89.881 31.0939 87.9042 31.0163C86.6591 30.9676 85.4158 30.8161 84.1904 30.5527C83.9006 30.4896 83.7307 30.4517 83.6823 30.0872C83.3943 27.8628 83.5321 27.7257 85.6734 28.128C87.2584 28.4257 88.8524 28.5934 90.4499 28.1839C90.9472 28.0558 91.4159 27.8664 91.7576 27.4659C92.3229 26.7984 92.1351 25.9324 91.3139 25.4056C90.4874 24.8752 89.5268 24.776 88.6001 24.5847C87.6627 24.3917 86.7504 24.1301 85.8899 23.7152C84.5571 23.0711 83.7396 22.0536 83.6627 20.5093C83.5768 18.7936 84.194 17.4585 85.7271 16.6322C87.2799 15.7951 88.9669 15.7302 91.1028 15.8258L91.1046 15.824Z" fill="black"/>
</g>
<defs>
<clipPath id="clip0_144_90034">
<rect width="142" height="41" fill="white"/>
</clipPath>
</defs>
</svg>