<?xml version="1.0" encoding="utf-8"?>
<svg xmlns="http://www.w3.org/2000/svg" xmlns:xlink="http://www.w3.org/1999/xlink" version="1.1" viewBox="0 0 115 42">
  <defs>
    <style>
      .cls-1, .cls-2 {
        fill: none;
      }

      .cls-2 {
        opacity: 0;
        stroke: #fff;
        stroke-miterlimit: 10;
      }

      .cls-3 {
        fill: #8b1bcb;
      }

      .cls-4 {
        clip-path: url(#clippath);
      }
    </style>
    <clipPath id="clippath">
      <rect class="cls-1" x="8.2" y="3" width="98.7" height="36"/>
    </clipPath>
  </defs>
  
  <g>
    <g id="Layer_1">
      <g class="cls-4">
        <g>
          <path class="cls-3" d="M43.5,3h5.3v7.8c.1,0,.2,0,.2,0,1.7-1.6,3.7-1.9,5.8-1.2,2.1.8,3,2.5,3.1,4.6.1,3.4,0,6.8,0,10.3h-5.3c0-.3,0-.6,0-.8,0-2.6,0-5.2,0-7.8,0-.8-.3-1.4-1.2-1.7-.7-.2-1.5-.2-1.9.5-.3.5-.6,1.1-.6,1.7,0,2.4,0,4.8,0,7.2v.8h-5.3V3Z"/>
          <path class="cls-3" d="M36.6,10.8v-1.1h5.1v14.9h-5.1c0-.4,0-.7,0-1.2-.4.3-.7.6-1,.8-2,1.3-5,1.1-7.1-.5-4.6-3.4-4-11.2,1-13.7,2.4-1.2,4.7-1.1,6.9.7,0,0,.1,0,.3.1h0ZM33.6,20.2c1.8,0,3.1-1.3,3.1-3,0-1.8-1.3-3.1-3.1-3.1-1.7,0-3.1,1.3-3.1,3,0,1.7,1.3,3,3,3.1h0Z"/>
          <path class="cls-3" d="M8.2,9.6c1.9,0,3.6,0,5.4,0,.2,0,.5.3.6.6,1,2.4,1.9,4.9,2.9,7.3,0,.2.2.4.3.8.4-1.1.8-2,1.2-3,.7-1.7,1.4-3.4,2-5.1.2-.4.4-.6.9-.6,1.6,0,3.3,0,5,0-.7,1.6-1.3,3.1-1.9,4.7-2.1,5.1-4.3,10.2-6.4,15.3-.2.5-.4.7-.9.6-1.6,0-3.2,0-5,0,.1-.3.2-.6.3-.8.6-1.3,1.1-2.6,1.7-3.9.2-.5.2-.9,0-1.4-1.9-4.5-3.9-9.1-5.8-13.6-.1-.2-.2-.5-.3-.8h0Z"/>
          <path class="cls-3" d="M84.2,9.3c4.6,0,8.1,3.4,8.1,7.9s-3.5,7.9-8.1,7.9-8.1-3.4-8.1-7.9c0-4.5,3.4-7.9,8.1-7.9h0ZM87.2,17.2c0-1.8-1.2-3-3-3-1.7,0-3,1.3-3,3,0,1.7,1.3,3,3,3,1.7,0,2.9-1.3,2.9-3Z"/>
          <path class="cls-3" d="M75.2,17.2c0,4.5-3.4,7.9-8,7.9-4.6,0-8.1-3.3-8.2-7.8,0-4.6,3.4-7.9,8.1-8,4.6,0,8.1,3.3,8.1,7.9h0ZM64.2,17.1c0,1.7,1.2,3,2.9,3,1.7,0,3-1.2,3-3,0-1.7-1.2-3-2.9-3-1.7,0-3,1.2-3,3Z"/>
          <path class="cls-3" d="M106.8,3c-1.9,4.6-3.8,9.1-5.6,13.6h-6.3c0-.2.1-.4.2-.6,1.7-4.1,3.4-8.2,5.1-12.2.2-.5.5-.8,1.1-.7,1.8,0,3.6,0,5.6,0Z"/>
          <path d="M74.2,38.7h-3c0-.2,0-.4-.1-.6,0,0-.1,0-.1,0-2.7,1.8-5.8.4-6.3-2.8-.3-2.3.8-4.5,2.8-5.1,1.3-.4,2.5-.2,3.6.8,0-.3,0-.5.1-.7h3v8.5h0ZM71.2,34.5c0-1-.8-1.7-1.7-1.7-.9,0-1.7.7-1.7,1.6,0,.9.7,1.7,1.7,1.7,1,0,1.7-.7,1.8-1.7h0Z"/>
          <path d="M83.9,38.7h-3.1c0-.7,0-1.4,0-2.1,0-.9,0-1.8,0-2.6,0-.7-.3-1.1-1-1.1-.7,0-1,.4-1,1,0,1.4,0,2.8,0,4.1,0,.2,0,.4,0,.6h-3.1c0-.2,0-.4,0-.5,0-2.4,0-4.9,0-7.3,0-.5.1-.7.6-.6.8,0,1.6,0,2.4,0,0,.2.1.5.1.5.8-.2,1.5-.6,2.3-.7,1.5,0,2.7.9,2.8,2.4.1,2.1,0,4.2,0,6.3h0Z"/>
          <path d="M63.8,38.7h-3.1c0-1.1,0-2.1,0-3.2,0-.6,0-1.2,0-1.7,0-.6-.3-.9-.9-1-.7,0-1,.4-1.1.9,0,.7,0,1.4,0,2.1,0,.9,0,1.8,0,2.8h-3.1v-8.5h3c0,.2.1.4.2.7.7-.7,1.4-1,2.3-1,1.5,0,2.7,1,2.8,2.5,0,2,0,4.1,0,6.2h0Z"/>
          <path d="M100.9,35.3h-5.6c0,1.1,1.3,1.7,2.2,1,.6-.4,1-.3,1.5-.1.6.2,1.1.4,1.7.7-.9,1.9-3.7,2.7-6,1.8-2.1-.8-3.2-3.3-2.4-5.7.8-2.3,3.2-3.5,5.7-2.8,2.1.6,3.4,2.8,2.9,5.1ZM97.9,33.4c-.2-.8-.6-1.1-1.5-1-.6,0-1.1.3-1.3,1h2.7Z"/>
          <path d="M44.7,32.8c-.4,0-.7,0-1.1,0v-2.5c.3,0,.7,0,1,0,0-.5,0-.9.2-1.3.5-2.1,2.8-3.4,4.8-2.6.2,0,.4.3.4.5,0,.7,0,1.4,0,2-.7.1-1.3.2-1.8.4-.2.1-.3.6-.5,1.1h2.2v2.6h-2v5.9h-3.2v-5.9h0Z"/>
          <path d="M91.4,33.2c-1.2-.4-2.3-.7-3.1.4-.4.5-.4,1.4,0,1.9.9,1,1.9.7,3.1.2,0,.9,0,1.7,0,2.6,0,.1-.3.4-.4.4-1.8.5-3.4.4-4.8-.9-1.4-1.3-1.6-3-1.1-4.8.5-1.8,1.9-2.7,3.7-3,2.4-.3,2.8.1,2.8,2.5,0,.2,0,.4,0,.7Z"/>
          <path class="cls-3" d="M96.4,24.9c-2,0-3.5-1.5-3.5-3.5s1.6-3.5,3.6-3.5c2,0,3.5,1.5,3.5,3.5,0,2-1.5,3.5-3.6,3.5h0Z"/>
          <path d="M51,38.7v-8.4h3v8.4h-3Z"/>
          <path d="M52.5,29.4c-1,0-1.8-.8-1.7-1.7,0-.9.8-1.7,1.8-1.7,1,0,1.8.8,1.8,1.8,0,1-.8,1.7-1.8,1.6Z"/>
        </g>
      </g>
      <rect class="cls-2" width="115" height="42"/>
    </g>
  </g>
</svg>